<svg width="235" height="39" viewBox="0 0 235 39" fill="none" xmlns="http://www.w3.org/2000/svg">
<path d="M17.44 3.344C19.616 3.344 21.392 3.648 22.768 4.256C24.144 4.864 25.376 5.6 26.464 6.464C26.848 6.752 27.168 6.896 27.424 6.896C28.032 6.896 28.432 5.936 28.624 4.016H29.728C29.664 5.264 29.616 6.784 29.584 8.576C29.552 10.336 29.536 12.688 29.536 15.632H28.432C28.208 13.712 27.856 12.048 27.376 10.64C26.928 9.2 26.08 7.968 24.832 6.944C24.064 6.208 23.104 5.632 21.952 5.216C20.832 4.8 19.696 4.592 18.544 4.592C16.784 4.592 15.28 5.056 14.032 5.984C12.784 6.88 11.76 8.112 10.96 9.68C10.16 11.248 9.568 13.024 9.184 15.008C8.8 16.96 8.608 18.992 8.608 21.104C8.608 26.864 9.392 31.072 10.96 33.728C12.56 36.384 14.848 37.712 17.824 37.712C18.592 37.712 19.264 37.616 19.84 37.424C20.416 37.232 20.88 37.008 21.232 36.752C21.68 36.432 21.984 36.096 22.144 35.744C22.304 35.36 22.384 34.864 22.384 34.256V29.552C22.384 28.08 22.256 26.992 22 26.288C21.776 25.552 21.312 25.056 20.608 24.8C19.904 24.544 18.88 24.4 17.536 24.368V23.408C18.208 23.44 19.008 23.472 19.936 23.504C20.896 23.504 21.888 23.52 22.912 23.552C23.936 23.552 24.88 23.552 25.744 23.552C27.088 23.552 28.32 23.536 29.44 23.504C30.56 23.472 31.472 23.44 32.176 23.408V24.368C31.568 24.4 31.104 24.512 30.784 24.704C30.496 24.896 30.288 25.28 30.16 25.856C30.064 26.432 30.016 27.312 30.016 28.496V38H29.056C29.024 37.456 28.896 36.864 28.672 36.224C28.48 35.584 28.144 35.264 27.664 35.264C27.44 35.264 27.136 35.328 26.752 35.456C26.4 35.552 25.84 35.824 25.072 36.272C23.888 36.944 22.64 37.52 21.328 38C20.016 38.448 18.64 38.672 17.2 38.672C13.488 38.672 10.352 37.984 7.792 36.608C5.232 35.232 3.296 33.264 1.984 30.704C0.704 28.112 0.0640001 25.008 0.0640001 21.392C0.0640001 17.744 0.8 14.576 2.272 11.888C3.776 9.2 5.824 7.104 8.416 5.6C11.04 4.096 14.048 3.344 17.44 3.344ZM58.3529 12.656V32.768C58.3529 34.208 58.5769 35.28 59.0249 35.984C59.4729 36.656 60.2729 36.992 61.4249 36.992V38C60.4329 37.904 59.4409 37.856 58.4489 37.856C57.1049 37.856 55.8569 37.904 54.7049 38C53.5529 38.096 52.4649 38.272 51.4409 38.528V34.208C50.6729 35.808 49.6009 36.96 48.2249 37.664C46.8809 38.336 45.3769 38.672 43.7129 38.672C42.3689 38.672 41.2809 38.496 40.4489 38.144C39.6169 37.792 38.9609 37.344 38.4809 36.8C37.9369 36.192 37.5529 35.392 37.3289 34.4C37.1049 33.408 36.9929 32.128 36.9929 30.56V18.416C36.9929 16.976 36.7689 15.92 36.3209 15.248C35.9049 14.544 35.1049 14.192 33.9209 14.192V13.184C34.9449 13.28 35.9369 13.328 36.8969 13.328C38.2409 13.328 39.4889 13.28 40.6409 13.184C41.8249 13.056 42.9129 12.88 43.9049 12.656V32.528C43.9049 33.328 43.9689 34.032 44.0969 34.64C44.2569 35.248 44.5449 35.728 44.9609 36.08C45.3769 36.4 45.9849 36.56 46.7849 36.56C47.6489 36.56 48.4169 36.32 49.0889 35.84C49.7929 35.36 50.3529 34.704 50.7689 33.872C51.2169 33.008 51.4409 32.048 51.4409 30.992V18.416C51.4409 16.976 51.2169 15.92 50.7689 15.248C50.3529 14.544 49.5529 14.192 48.3689 14.192V13.184C49.3929 13.28 50.3849 13.328 51.3449 13.328C52.6889 13.328 53.9369 13.28 55.0889 13.184C56.2729 13.056 57.3609 12.88 58.3529 12.656ZM69.7983 0.799998C71.1423 0.799998 72.1983 1.136 72.9663 1.808C73.7663 2.448 74.1663 3.344 74.1663 4.496C74.1663 5.648 73.7663 6.56 72.9663 7.232C72.1983 7.872 71.1423 8.192 69.7983 8.192C68.4543 8.192 67.3823 7.872 66.5823 7.232C65.8143 6.56 65.4303 5.648 65.4303 4.496C65.4303 3.344 65.8143 2.448 66.5823 1.808C67.3823 1.136 68.4543 0.799998 69.7983 0.799998ZM73.5423 12.656V33.536C73.5423 34.88 73.7663 35.792 74.2143 36.272C74.6943 36.752 75.4943 36.992 76.6143 36.992V38C76.0383 37.968 75.1423 37.936 73.9263 37.904C72.7103 37.84 71.4783 37.808 70.2303 37.808C68.9823 37.808 67.7183 37.84 66.4383 37.904C65.1583 37.936 64.1983 37.968 63.5583 38V36.992C64.6783 36.992 65.4623 36.752 65.9103 36.272C66.3903 35.792 66.6303 34.88 66.6303 33.536V18.416C66.6303 16.976 66.4063 15.92 65.9583 15.248C65.5423 14.544 64.7423 14.192 63.5583 14.192V13.184C64.5823 13.28 65.5743 13.328 66.5343 13.328C67.8783 13.328 69.1263 13.28 70.2783 13.184C71.4623 13.056 72.5503 12.88 73.5423 12.656ZM88.4909 0.415998V33.536C88.4909 34.88 88.7149 35.792 89.1629 36.272C89.6429 36.752 90.4429 36.992 91.5629 36.992V38C90.9549 37.968 90.0429 37.936 88.8269 37.904C87.6109 37.84 86.3789 37.808 85.1309 37.808C83.8829 37.808 82.6189 37.84 81.3389 37.904C80.0909 37.936 79.1469 37.968 78.5069 38V36.992C79.6269 36.992 80.4109 36.752 80.8589 36.272C81.3389 35.792 81.5789 34.88 81.5789 33.536V6.176C81.5789 4.736 81.3549 3.68 80.9069 3.008C80.4909 2.304 79.6909 1.952 78.5069 1.952V0.943999C79.5309 1.04 80.5229 1.088 81.4829 1.088C82.7949 1.088 84.0429 1.04 85.2269 0.943999C86.4109 0.815999 87.4989 0.639998 88.4909 0.415998ZM103.63 0.463997V16.976C104.43 15.312 105.502 14.16 106.846 13.52C108.222 12.848 109.758 12.512 111.454 12.512C112.83 12.512 113.934 12.688 114.766 13.04C115.598 13.36 116.254 13.808 116.734 14.384C117.278 14.992 117.662 15.776 117.886 16.736C118.142 17.696 118.27 18.992 118.27 20.624V33.536C118.27 34.88 118.494 35.792 118.942 36.272C119.422 36.752 120.222 36.992 121.342 36.992V38C120.734 37.968 119.806 37.936 118.558 37.904C117.342 37.84 116.158 37.808 115.006 37.808C113.758 37.808 112.542 37.84 111.358 37.904C110.206 37.936 109.342 37.968 108.766 38V36.992C109.726 36.992 110.398 36.752 110.782 36.272C111.166 35.792 111.358 34.88 111.358 33.536V18.608C111.358 17.808 111.278 17.12 111.118 16.544C110.958 15.936 110.654 15.472 110.206 15.152C109.79 14.8 109.182 14.624 108.382 14.624C107.518 14.624 106.718 14.864 105.982 15.344C105.278 15.792 104.702 16.432 104.254 17.264C103.838 18.096 103.63 19.056 103.63 20.144V33.536C103.63 34.88 103.822 35.792 104.206 36.272C104.59 36.752 105.262 36.992 106.222 36.992V38C105.646 37.968 104.798 37.936 103.678 37.904C102.558 37.84 101.422 37.808 100.27 37.808C99.0224 37.808 97.7584 37.84 96.4784 37.904C95.2304 37.936 94.2864 37.968 93.6464 38V36.992C94.7664 36.992 95.5504 36.752 95.9984 36.272C96.4784 35.792 96.7184 34.88 96.7184 33.536V6.224C96.7184 4.784 96.4944 3.728 96.0464 3.056C95.6304 2.352 94.8304 2 93.6464 2V0.991999C94.6704 1.088 95.6624 1.136 96.6224 1.136C97.9344 1.136 99.1824 1.088 100.366 0.991999C101.55 0.863998 102.638 0.687998 103.63 0.463997ZM135.474 12.512C138.29 12.512 140.498 13.344 142.098 15.008C143.698 16.672 144.498 19.392 144.498 23.168H128.706L128.61 22.256H138.45C138.482 20.688 138.386 19.248 138.162 17.936C137.938 16.592 137.586 15.52 137.106 14.72C136.626 13.92 135.986 13.52 135.186 13.52C134.066 13.52 133.106 14.224 132.306 15.632C131.538 17.04 131.074 19.376 130.914 22.64L131.058 22.928C131.026 23.312 130.994 23.712 130.962 24.128C130.962 24.544 130.962 24.976 130.962 25.424C130.962 27.632 131.266 29.424 131.874 30.8C132.514 32.176 133.314 33.184 134.273 33.824C135.234 34.432 136.21 34.736 137.202 34.736C137.874 34.736 138.562 34.64 139.266 34.448C140.002 34.224 140.738 33.84 141.474 33.296C142.21 32.72 142.898 31.92 143.538 30.896L144.402 31.184C144.018 32.4 143.41 33.584 142.578 34.736C141.746 35.888 140.69 36.832 139.41 37.568C138.13 38.304 136.594 38.672 134.802 38.672C132.626 38.672 130.706 38.208 129.042 37.28C127.378 36.352 126.066 34.944 125.105 33.056C124.178 31.168 123.714 28.768 123.714 25.856C123.714 22.88 124.21 20.4 125.202 18.416C126.226 16.432 127.618 14.96 129.378 14C131.17 13.008 133.202 12.512 135.474 12.512ZM163.508 12.512C164.532 12.512 165.364 12.736 166.004 13.184C166.644 13.6 167.108 14.144 167.396 14.816C167.716 15.488 167.876 16.192 167.876 16.928C167.876 18.112 167.524 19.088 166.82 19.856C166.148 20.592 165.252 20.96 164.132 20.96C163.012 20.96 162.132 20.688 161.492 20.144C160.884 19.568 160.58 18.816 160.58 17.888C160.58 16.992 160.772 16.256 161.156 15.68C161.572 15.072 162.084 14.56 162.692 14.144C162.244 14.016 161.796 14.032 161.348 14.192C160.74 14.288 160.164 14.544 159.62 14.96C159.076 15.344 158.612 15.84 158.228 16.448C157.844 17.024 157.54 17.664 157.316 18.368C157.092 19.04 156.98 19.696 156.98 20.336V33.056C156.98 34.592 157.348 35.632 158.084 36.176C158.852 36.72 159.988 36.992 161.492 36.992V38C160.756 37.968 159.684 37.936 158.276 37.904C156.868 37.84 155.396 37.808 153.86 37.808C152.58 37.808 151.284 37.84 149.972 37.904C148.66 37.936 147.668 37.968 146.996 38V36.992C148.116 36.992 148.9 36.752 149.348 36.272C149.828 35.792 150.068 34.88 150.068 33.536V18.416C150.068 16.976 149.844 15.92 149.396 15.248C148.98 14.544 148.18 14.192 146.996 14.192V13.184C148.02 13.28 149.012 13.328 149.972 13.328C151.316 13.328 152.564 13.28 153.716 13.184C154.9 13.056 155.988 12.88 156.98 12.656V17.12C157.364 16.256 157.876 15.472 158.516 14.768C159.156 14.064 159.892 13.52 160.724 13.136C161.556 12.72 162.484 12.512 163.508 12.512ZM186.826 12.512C188.17 12.512 189.258 12.688 190.09 13.04C190.922 13.36 191.594 13.808 192.106 14.384C192.618 14.992 192.986 15.792 193.21 16.784C193.434 17.744 193.546 19.024 193.546 20.624V33.536C193.546 34.88 193.754 35.792 194.17 36.272C194.586 36.752 195.306 36.992 196.33 36.992V38C195.754 37.968 194.874 37.936 193.69 37.904C192.538 37.84 191.402 37.808 190.282 37.808C189.13 37.808 187.994 37.84 186.874 37.904C185.754 37.936 184.906 37.968 184.33 38V36.992C185.194 36.992 185.786 36.752 186.106 36.272C186.458 35.792 186.634 34.88 186.634 33.536V18.608C186.634 17.808 186.57 17.12 186.442 16.544C186.314 15.936 186.058 15.472 185.674 15.152C185.322 14.8 184.778 14.624 184.042 14.624C183.21 14.624 182.442 14.864 181.738 15.344C181.034 15.824 180.458 16.496 180.01 17.36C179.594 18.192 179.386 19.136 179.386 20.192V33.536C179.386 34.88 179.562 35.792 179.914 36.272C180.266 36.752 180.858 36.992 181.69 36.992V38C181.178 37.968 180.378 37.936 179.29 37.904C178.234 37.84 177.146 37.808 176.026 37.808C174.81 37.808 173.562 37.84 172.282 37.904C171.002 37.936 170.042 37.968 169.402 38V36.992C170.522 36.992 171.306 36.752 171.754 36.272C172.234 35.792 172.474 34.88 172.474 33.536V18.416C172.474 16.976 172.25 15.92 171.802 15.248C171.386 14.544 170.586 14.192 169.402 14.192V13.184C170.426 13.28 171.418 13.328 172.378 13.328C173.722 13.328 174.97 13.28 176.122 13.184C177.306 13.056 178.394 12.88 179.386 12.656V16.976C180.154 15.376 181.194 14.24 182.506 13.568C183.818 12.864 185.258 12.512 186.826 12.512ZM201.274 12.512C202.618 12.512 203.706 12.688 204.538 13.04C205.37 13.36 206.042 13.808 206.554 14.384C207.066 14.992 207.434 15.792 207.658 16.784C207.882 17.744 207.994 19.024 207.994 20.624V33.536C207.994 34.88 208.218 35.792 208.666 36.272C209.146 36.752 209.946 36.992 211.066 36.992V38C210.458 37.968 209.546 37.936 208.33 37.904C207.114 37.84 205.914 37.808 204.73 37.808C203.578 37.808 202.442 37.84 201.322 37.904C200.202 37.936 199.354 37.968 198.778 38V36.992C199.642 36.992 200.234 36.752 200.554 36.272C200.906 35.792 201.082 34.88 201.082 33.536V18.608C201.082 17.808 201.002 17.12 200.842 16.544C200.714 15.936 200.442 15.472 200.026 15.152C199.642 14.8 199.034 14.624 198.202 14.624C197.37 14.624 196.602 14.88 195.898 15.392C195.194 15.904 194.618 16.592 194.17 17.456C193.754 18.32 193.53 19.28 193.498 20.336L193.258 17.408C194.122 15.488 195.258 14.192 196.666 13.52C198.106 12.848 199.642 12.512 201.274 12.512ZM225.239 12.512C228.055 12.512 230.263 13.344 231.863 15.008C233.463 16.672 234.263 19.392 234.263 23.168H218.471L218.375 22.256H228.215C228.247 20.688 228.151 19.248 227.927 17.936C227.703 16.592 227.351 15.52 226.871 14.72C226.391 13.92 225.751 13.52 224.951 13.52C223.831 13.52 222.871 14.224 222.071 15.632C221.303 17.04 220.839 19.376 220.679 22.64L220.823 22.928C220.791 23.312 220.759 23.712 220.727 24.128C220.727 24.544 220.727 24.976 220.727 25.424C220.727 27.632 221.031 29.424 221.639 30.8C222.279 32.176 223.079 33.184 224.039 33.824C224.999 34.432 225.975 34.736 226.967 34.736C227.639 34.736 228.327 34.64 229.031 34.448C229.767 34.224 230.503 33.84 231.239 33.296C231.975 32.72 232.663 31.92 233.303 30.896L234.167 31.184C233.783 32.4 233.175 33.584 232.343 34.736C231.511 35.888 230.455 36.832 229.175 37.568C227.895 38.304 226.359 38.672 224.567 38.672C222.391 38.672 220.471 38.208 218.807 37.28C217.143 36.352 215.831 34.944 214.871 33.056C213.943 31.168 213.479 28.768 213.479 25.856C213.479 22.88 213.975 20.4 214.967 18.416C215.991 16.432 217.383 14.96 219.143 14C220.935 13.008 222.967 12.512 225.239 12.512Z" fill="#141414"/>
</svg>
